HIERARCHY
ROOT Hips
{
	OFFSET -0.001795 -0.223333 0.028219
	CHANNELS 6 Xposition Yposition Zposition Zrotation Yrotation Xrotation 
	JOINT LeftUpLeg
	{
		OFFSET 0.069520 -0.091406 -0.006815
		CHANNELS 3 Zrotation Yrotation Xrotation
		JOINT LeftLeg
		{
			OFFSET 0.034277 -0.375199 -0.004496
			CHANNELS 3 Zrotation Yrotation Xrotation
			JOINT LeftFoot
			{
				OFFSET -0.013596 -0.397961 -0.043693
				CHANNELS 3 Zrotation Yrotation Xrotation
				JOINT LeftToe
				{
					OFFSET 0.026358 -0.055791 0.119288
					CHANNELS 3 Zrotation Yrotation Xrotation
					End Site
					{
						OFFSET 0.000000 0.000000 0.000000
					}
				}
			}
		}
	}
	JOINT RightUpLeg
	{
		OFFSET -0.067670 -0.090522 -0.004320
		CHANNELS 3 Zrotation Yrotation Xrotation
		JOINT RightLeg
		{
			OFFSET -0.038290 -0.382569 -0.008850
			CHANNELS 3 Zrotation Yrotation Xrotation
			JOINT RightFoot
			{
				OFFSET 0.015774 -0.398415 -0.042312
				CHANNELS 3 Zrotation Yrotation Xrotation
				JOINT RightToe
				{
					OFFSET -0.025372 -0.048144 0.123348
					CHANNELS 3 Zrotation Yrotation Xrotation
					End Site
					{
						OFFSET 0.000000 0.000000 0.000000
					}
				}
			}
		}
	}
	JOINT Spine
	{
		OFFSET -0.002533 0.108963 -0.026696
		CHANNELS 3 Zrotation Yrotation Xrotation
		JOINT Spine1
		{
			OFFSET 0.005487 0.135180 0.001092
			CHANNELS 3 Zrotation Yrotation Xrotation
			JOINT Spine2
			{
				OFFSET 0.001457 0.052922 0.025425
				CHANNELS 3 Zrotation Yrotation Xrotation
				JOINT Neck
				{
					OFFSET -0.002778 0.213870 -0.042857
					CHANNELS 3 Zrotation Yrotation Xrotation
					JOINT Head
					{
						OFFSET 0.005152 0.064970 0.051349
						CHANNELS 3 Zrotation Yrotation Xrotation
						End Site
						{
							OFFSET 0.000000 0.000000 0.000000
						}
					}
				}
				JOINT LeftShoulder
				{
					OFFSET 0.078845 0.121749 -0.034090
					CHANNELS 3 Zrotation Yrotation Xrotation
					JOINT LeftArm
					{
						OFFSET 0.090977 0.030469 -0.008868
						CHANNELS 3 Zrotation Yrotation Xrotation
						JOINT LeftForeArm
						{
							OFFSET 0.259612 -0.012772 -0.027456
							CHANNELS 3 Zrotation Yrotation Xrotation
							JOINT LeftHand
							{
								OFFSET 0.249234 0.008986 -0.001171
								CHANNELS 3 Zrotation Yrotation Xrotation
								End Site
								{
									OFFSET 0.000000 0.000000 0.000000
								}
							}
						}
					}
				}
				JOINT RightShoulder
				{
					OFFSET -0.081759 0.118833 -0.038615
					CHANNELS 3 Zrotation Yrotation Xrotation
					JOINT RightArm
					{
						OFFSET -0.096012 0.032551 -0.009143
						CHANNELS 3 Zrotation Yrotation Xrotation
						JOINT RightForeArm
						{
							OFFSET -0.253742 -0.013329 -0.021401
							CHANNELS 3 Zrotation Yrotation Xrotation
							JOINT RightHand
							{
								OFFSET -0.255298 0.007772 -0.005559
								CHANNELS 3 Zrotation Yrotation Xrotation
								End Site
								{
									OFFSET 0.000000 0.000000 0.000000
								}
							}
						}
					}
				}
			}
		}
	}
}
MOTION
Frames: 9
Frame Time: 0.050000
0.000000 0.952041 0.000000 0.396958 2.733697 1.283986 5.290536 -0.798368 -14.495025 -4.453155 0.394821 24.694924 3.177087 8.559204 6.005020 0.000000 0.000000 0.000000 3.095176 0.131214 -1.548481 0.640884 0.135782 6.655563 -1.678282 -5.796788 4.450799 0.000000 0.000000 0.000000 0.426205 -0.302107 6.535763 -1.322812 0.676018 -2.042938 -0.081948 0.035154 7.623453 1.231952 0.161350 -11.955847 0.000000 0.000000 0.000000 -22.511675 0.026559 -2.538578 -47.692939 7.734791 -8.714706 -55.499723 -56.822996 34.326031 0.000000 0.000000 0.000000 15.289849 -4.429340 -3.262204 49.721866 -20.327426 -12.983752 81.146531 47.491007 43.340576 0.000000 0.000000 0.000000 
0.002872 0.950345 0.010982 0.500607 4.112029 2.002327 4.987401 -1.097567 -18.336484 -3.095830 -0.175727 25.410891 3.638145 9.000507 4.277672 0.000000 0.000000 0.000000 2.833115 0.011626 -0.567041 0.757034 0.075424 5.588813 -1.896537 -5.832933 3.084549 0.000000 0.000000 0.000000 0.125523 -0.228173 5.292837 -0.602462 0.252682 0.828753 0.034964 -0.558826 5.136097 -0.572294 1.624899 -16.066626 0.000000 0.000000 0.000000 -21.584263 2.807050 -4.072445 -47.698579 7.068994 -8.248354 -59.253664 -56.021244 36.041411 0.000000 0.000000 0.000000 12.701366 -2.670151 -2.164431 50.997201 -19.281895 -12.706649 86.164015 47.411198 46.661227 0.000000 0.000000 0.000000 
0.007375 0.950881 0.023193 0.281599 3.693990 1.064060 5.315673 -1.111406 -19.736458 -0.972940 -0.621528 20.353704 1.151221 5.541986 7.679615 0.000000 0.000000 0.000000 2.739788 -0.168049 0.890886 0.738696 0.101662 6.331584 -1.668060 -5.262559 2.926236 0.000000 0.000000 0.000000 0.972692 -0.358347 6.845543 -1.695350 0.853916 -2.128809 0.075710 1.430247 8.067741 0.639292 1.015613 -15.227700 0.000000 0.000000 0.000000 -19.497933 1.389202 -3.353768 -48.377851 7.240522 -8.641808 -65.244359 -57.506581 40.786124 0.000000 0.000000 0.000000 14.061971 -2.781054 -1.976561 50.325767 -16.303753 -11.589387 82.644060 49.402003 47.191106 0.000000 0.000000 0.000000 
0.013668 0.950325 0.037631 0.335552 3.125274 1.089119 4.947563 -1.203300 -20.698521 0.603777 -0.732784 14.535928 -1.255526 2.940392 11.977611 0.000000 0.000000 0.000000 2.286226 -0.251194 1.654501 0.798765 0.090808 6.122977 -1.724956 -5.591751 3.480902 0.000000 0.000000 0.000000 0.994860 -0.339988 6.492667 -1.860786 0.906936 -1.082604 0.064697 1.925764 7.588607 0.962488 0.925786 -16.241978 0.000000 0.000000 0.000000 -19.132665 1.638062 -3.493092 -48.813437 6.251796 -8.290902 -69.020934 -57.985051 43.736664 0.000000 0.000000 0.000000 13.272857 -0.658017 -0.865134 49.894583 -11.956811 -9.751042 81.603316 50.881825 47.980053 0.000000 0.000000 0.000000 
0.021856 0.949219 0.054666 0.295059 1.848253 0.788441 5.041388 -1.125201 -20.579857 1.241409 -0.544017 8.592796 -2.691837 1.588600 14.920105 0.000000 0.000000 0.000000 1.925738 -0.361781 2.681038 0.481680 0.166187 6.516544 -1.656938 -5.485328 3.487935 0.000000 0.000000 0.000000 0.570487 -0.350246 7.393290 -1.579425 0.786799 -1.889206 0.285062 3.693718 8.627519 0.777197 1.342119 -18.336298 0.000000 0.000000 0.000000 -18.579291 1.044283 -3.323560 -49.212333 5.311044 -8.047145 -71.534194 -59.096078 46.174015 0.000000 0.000000 0.000000 13.138771 0.773040 0.041519 50.107201 -6.799474 -7.898662 75.659381 52.187452 45.496663 0.000000 0.000000 0.000000 
0.032125 0.945801 0.075002 0.155235 1.493231 0.266217 4.934058 -1.097914 -20.120172 2.702691 -0.395419 1.776816 -5.404026 -1.144862 18.539936 0.000000 0.000000 0.000000 1.756813 -0.611846 4.878852 -0.080884 0.224257 5.505541 -1.891351 -6.105957 3.680312 0.000000 0.000000 0.000000 0.391717 -0.367898 8.106585 -2.077645 1.015596 -1.933561 0.863673 4.189599 8.532512 1.406083 1.018656 -18.571764 0.000000 0.000000 0.000000 -18.143967 -0.828552 -2.337264 -49.461216 4.316838 -7.693117 -73.358034 -62.126839 50.131372 0.000000 0.000000 0.000000 12.972361 2.955610 1.147549 51.320684 -2.842685 -6.517522 72.279617 53.805000 44.697945 0.000000 0.000000 0.000000 
0.044585 0.941247 0.098632 -0.206235 0.035275 0.210655 4.938241 -1.020046 -19.778968 5.318058 -0.393295 -2.355187 -8.536370 -3.287873 24.444874 0.000000 0.000000 0.000000 1.100859 -0.736700 6.449571 -0.365481 0.263011 5.209670 -1.397761 -4.866602 3.254948 0.000000 0.000000 0.000000 0.359839 -0.358191 8.082993 -2.289850 1.105268 -2.186426 1.012411 4.948117 8.922643 2.126387 0.605435 -18.686786 0.000000 0.000000 0.000000 -17.448904 -1.829339 -1.706615 -49.902432 2.922138 -7.262447 -73.903172 -63.512654 51.831195 0.000000 0.000000 0.000000 13.651592 4.419786 1.887711 50.804437 1.324571 -4.863328 69.552042 54.503081 43.420236 0.000000 0.000000 0.000000 
0.059539 0.935558 0.126044 -0.960498 -0.079769 0.721673 5.146507 -0.994111 -19.959411 7.439455 -0.548191 -2.698237 -11.205235 -4.157678 30.272881 0.000000 0.000000 0.000000 0.788347 -0.819631 7.438396 0.163207 0.184408 5.254255 -1.919416 -6.158216 3.493581 0.000000 0.000000 0.000000 0.875256 -0.343966 6.888936 -2.679331 1.282035 -0.813313 1.273559 4.459368 8.149719 2.180220 0.455640 -18.188746 0.000000 0.000000 0.000000 -17.072348 -3.130255 -0.880129 -50.546991 0.516226 -6.357776 -69.911372 -65.001871 50.129436 0.000000 0.000000 0.000000 14.810443 6.095099 2.630627 50.077823 4.308485 -3.576887 66.765955 54.397680 41.061732 0.000000 0.000000 0.000000 
0.076883 0.930758 0.156013 -1.544743 -1.409879 1.560050 4.975786 -0.980881 -20.132594 10.185649 -0.999060 -1.033821 -12.915762 -4.406361 34.818165 0.000000 0.000000 0.000000 0.311588 -0.831955 8.118758 -0.399234 0.315230 6.134646 -1.755203 -5.536955 2.742185 0.000000 0.000000 0.000000 0.885232 -0.289129 5.724030 -2.501025 1.193709 -0.432412 1.593390 4.284903 7.964235 2.053991 0.472055 -18.689536 0.000000 0.000000 0.000000 -18.415216 -4.190996 -0.263427 -50.772037 -1.501614 -5.548174 -63.944038 -66.960282 47.400054 0.000000 0.000000 0.000000 15.312313 8.099732 3.471890 49.356376 6.675814 -2.563986 65.336189 54.679169 39.909123 0.000000 0.000000 0.000000 
